<svg width="50" height="50" viewBox="0 0 50 50" fill="none" xmlns="http://www.w3.org/2000/svg">
<path d="M42.1875 12.1094H35.5469L33.9648 7.67578C33.8555 7.3724 33.6552 7.11017 33.3913 6.92489C33.1274 6.73962 32.8127 6.64034 32.4902 6.64063H17.5098C16.8506 6.64063 16.2598 7.05566 16.04 7.67578L14.4531 12.1094H7.8125C5.6543 12.1094 3.90625 13.8574 3.90625 16.0156V38.2812C3.90625 40.4395 5.6543 42.1875 7.8125 42.1875H42.1875C44.3457 42.1875 46.0938 40.4395 46.0938 38.2812V16.0156C46.0938 13.8574 44.3457 12.1094 42.1875 12.1094ZM42.5781 38.2812C42.5781 38.4961 42.4023 38.6719 42.1875 38.6719H7.8125C7.59766 38.6719 7.42188 38.4961 7.42188 38.2812V16.0156C7.42188 15.8008 7.59766 15.625 7.8125 15.625H16.9287L17.7637 13.291L18.8818 10.1563H31.1133L32.2314 13.291L33.0664 15.625H42.1875C42.4023 15.625 42.5781 15.8008 42.5781 16.0156V38.2812ZM25 18.75C20.6836 18.75 17.1875 22.2461 17.1875 26.5625C17.1875 30.8789 20.6836 34.375 25 34.375C29.3164 34.375 32.8125 30.8789 32.8125 26.5625C32.8125 22.2461 29.3164 18.75 25 18.75ZM25 31.25C22.4121 31.25 20.3125 29.1504 20.3125 26.5625C20.3125 23.9746 22.4121 21.875 25 21.875C27.5879 21.875 29.6875 23.9746 29.6875 26.5625C29.6875 29.1504 27.5879 31.25 25 31.25Z" fill="#0874FC"/>
</svg>
