<svg width="200" height="200" viewBox="0 0 200 200" fill="none" xmlns="http://www.w3.org/2000/svg">
<g clip-path="url(#clip0_528_72)">
<path d="M175 12.5C178.315 12.5 181.495 13.817 183.839 16.1612C186.183 18.5054 187.5 21.6848 187.5 25V125C187.5 128.315 186.183 131.495 183.839 133.839C181.495 136.183 178.315 137.5 175 137.5H55.175C48.5451 137.501 42.1873 140.136 37.5 144.825L12.5 169.825V25C12.5 21.6848 13.817 18.5054 16.1612 16.1612C18.5054 13.817 21.6848 12.5 25 12.5H175ZM25 0C18.3696 0 12.0107 2.63392 7.32233 7.32233C2.63392 12.0107 0 18.3696 0 25L0 184.913C0.000262686 186.149 0.367407 187.358 1.05497 188.386C1.74252 189.414 2.71959 190.215 3.86249 190.687C5.0054 191.16 6.26276 191.282 7.47545 191.04C8.68814 190.797 9.80163 190.201 10.675 189.325L46.3375 153.663C48.6812 151.318 51.8601 150.001 55.175 150H175C181.63 150 187.989 147.366 192.678 142.678C197.366 137.989 200 131.63 200 125V25C200 18.3696 197.366 12.0107 192.678 7.32233C187.989 2.63392 181.63 0 175 0L25 0Z" fill="white" fill-opacity="0.5"/>
</g>
<defs>
<clipPath id="clip0_528_72">
<rect width="200" height="200" fill="white"/>
</clipPath>
</defs>
</svg>
