<svg width="32" height="32" viewBox="0 0 32 32" fill="none" xmlns="http://www.w3.org/2000/svg">
<path d="M16 2C13.2311 2 10.5243 2.82109 8.22202 4.35943C5.91973 5.89777 4.12532 8.08427 3.06569 10.6424C2.00607 13.2006 1.72882 16.0155 2.26901 18.7313C2.80921 21.447 4.14258 23.9416 6.10051 25.8995C8.05845 27.8574 10.553 29.1908 13.2687 29.731C15.9845 30.2712 18.7994 29.9939 21.3576 28.9343C23.9157 27.8747 26.1022 26.0803 27.6406 23.778C29.1789 21.4757 30 18.7689 30 16C30 12.287 28.525 8.72601 25.8995 6.1005C23.274 3.475 19.713 2 16 2V2ZM23.5 9C24.1922 9 24.8689 9.20527 25.4445 9.58986C26.0201 9.97444 26.4687 10.5211 26.7336 11.1606C26.9985 11.8001 27.0678 12.5039 26.9328 13.1828C26.7977 13.8618 26.4644 14.4854 25.9749 14.9749C25.4854 15.4644 24.8618 15.7977 24.1828 15.9327C23.5039 16.0678 22.8002 15.9985 22.1606 15.7336C21.5211 15.4687 20.9744 15.0201 20.5899 14.4445C20.2053 13.8689 20 13.1922 20 12.5C20.0011 11.5721 20.3702 10.6824 21.0263 10.0263C21.6824 9.37015 22.5721 9.00106 23.5 9ZM23.935 7.022C23.7904 7.00895 23.6452 7.00162 23.5 7C22.7171 6.99989 21.9433 7.16744 21.2306 7.49138C20.5178 7.81531 19.8827 8.28812 19.368 8.878C18.8734 7.7163 18.1112 6.68798 17.1436 5.87691C16.1759 5.06585 15.0302 4.49502 13.8 4.211C15.5916 3.86834 17.4381 3.94372 19.1958 4.43127C20.9535 4.91883 22.5749 5.8054 23.934 7.022H23.935ZM16 28C15.2089 28 14.4355 27.7654 13.7777 27.3259C13.1199 26.8864 12.6072 26.2616 12.3045 25.5307C12.0017 24.7998 11.9225 23.9956 12.0769 23.2196C12.2312 22.4437 12.6122 21.731 13.1716 21.1716C13.731 20.6122 14.4437 20.2312 15.2196 20.0769C15.9956 19.9225 16.7998 20.0017 17.5307 20.3045C18.2616 20.6072 18.8864 21.1199 19.3259 21.7777C19.7654 22.4355 20 23.2089 20 24C19.9987 25.0605 19.5768 26.0771 18.827 26.827C18.0771 27.5768 17.0605 27.9987 16 28V28ZM12 18C10.8133 18 9.65328 17.6481 8.66658 16.9888C7.67989 16.3295 6.91085 15.3925 6.45673 14.2961C6.0026 13.1997 5.88378 11.9933 6.11529 10.8295C6.34681 9.66557 6.91825 8.59647 7.75737 7.75736C8.59648 6.91824 9.66558 6.3468 10.8295 6.11529C11.9934 5.88378 13.1998 6.0026 14.2961 6.45672C15.3925 6.91085 16.3295 7.67988 16.9888 8.66658C17.6481 9.65327 18 10.8133 18 12C17.9982 13.5907 17.3654 15.1158 16.2406 16.2406C15.1158 17.3654 13.5907 17.9981 12 18ZM4.00001 16C4.00241 15.2621 4.07304 14.5259 4.21101 13.801C4.60164 15.487 5.52904 17.0007 6.85376 18.1144C8.17848 19.2282 9.82894 19.8818 11.557 19.977C10.7354 20.8771 10.2096 22.0074 10.0505 23.2157C9.89131 24.4239 10.1065 25.6519 10.667 26.734C8.66748 25.7418 6.98428 24.2116 5.80654 22.3154C4.62879 20.4192 4.00318 18.2322 4.00001 16V16ZM21.332 26.734C21.7587 25.908 21.9871 24.9939 21.999 24.0643C22.0108 23.1346 21.8059 22.215 21.4004 21.3783C20.9949 20.5417 20.4 19.8111 19.6629 19.2445C18.9258 18.6778 18.0668 18.2908 17.154 18.114C17.937 17.454 18.5864 16.6502 19.067 15.746C19.5805 16.4501 20.2543 17.0218 21.0327 17.4138C21.811 17.8058 22.6715 18.0068 23.543 18.0001C24.4144 17.9935 25.2717 17.7794 26.044 17.3756C26.8163 16.9718 27.4813 16.3899 27.984 15.678C27.987 15.786 28 15.892 28 16C27.9967 18.2323 27.371 20.4194 26.1931 22.3156C25.0151 24.2118 23.3317 25.7419 21.332 26.734Z" fill="white" fill-opacity="0.5"/>
</svg>
