<svg width="15" height="15" viewBox="0 0 15 15" fill="none" xmlns="http://www.w3.org/2000/svg">
<path fill-rule="evenodd" clip-rule="evenodd" d="M11.7824 4.03337C11.8358 3.97998 11.8782 3.9166 11.9072 3.84682C11.9361 3.77705 11.9511 3.70226 11.9511 3.62672C11.9512 3.55118 11.9363 3.47637 11.9075 3.40656C11.8786 3.33675 11.8363 3.27331 11.7829 3.21987C11.7295 3.16642 11.6661 3.12401 11.5963 3.09506C11.5266 3.06611 11.4518 3.05118 11.3762 3.05113C11.3007 3.05109 11.2259 3.06592 11.1561 3.09479C11.0863 3.12365 11.0228 3.16598 10.9694 3.21937L7.50039 6.68837L4.03239 3.21937C3.92445 3.11142 3.77804 3.05078 3.62539 3.05078C3.47273 3.05078 3.32633 3.11142 3.21839 3.21937C3.11045 3.32731 3.0498 3.47371 3.0498 3.62637C3.0498 3.77902 3.11045 3.92542 3.21839 4.03337L6.68739 7.50137L3.21839 10.9694C3.16494 11.0228 3.12254 11.0863 3.09362 11.1561C3.06469 11.2259 3.0498 11.3008 3.0498 11.3764C3.0498 11.452 3.06469 11.5268 3.09362 11.5966C3.12254 11.6665 3.16494 11.7299 3.21839 11.7834C3.32633 11.8913 3.47273 11.952 3.62539 11.952C3.70098 11.952 3.77582 11.9371 3.84566 11.9081C3.91549 11.8792 3.97894 11.8368 4.03239 11.7834L7.50039 8.31437L10.9694 11.7834C11.0773 11.8912 11.2237 11.9517 11.3762 11.9516C11.5288 11.9515 11.6751 11.8908 11.7829 11.7829C11.8907 11.6749 11.9512 11.5286 11.9511 11.376C11.951 11.2235 11.8903 11.0772 11.7824 10.9694L8.31339 7.50137L11.7824 4.03337Z" fill="#677788"/>
</svg>
