<svg width="512" height="512" viewBox="0 0 512 512" fill="none" xmlns="http://www.w3.org/2000/svg">
<path d="M85.333 0H149.333C196.461 0 234.666 38.205 234.666 85.333V149.333C234.666 196.461 196.461 234.666 149.333 234.666H85.333C38.205 234.667 0 196.462 0 149.333V85.333C0 38.205 38.205 0 85.333 0Z" fill="white" fill-opacity="0.5"/>
<path d="M362.667 0H426.667C473.795 0 512 38.205 512 85.333V149.333C512 196.461 473.795 234.666 426.667 234.666H362.667C315.539 234.666 277.334 196.461 277.334 149.333V85.333C277.333 38.205 315.538 0 362.667 0Z" fill="white"/>
<path d="M85.333 277.333H149.333C196.461 277.333 234.666 315.538 234.666 362.666V426.666C234.666 473.794 196.461 511.999 149.333 511.999H85.333C38.205 512 0 473.795 0 426.667V362.667C0 315.538 38.205 277.333 85.333 277.333Z" fill="white"/>
<path d="M362.667 277.333H426.667C473.795 277.333 512 315.538 512 362.666V426.666C512 473.795 473.795 512 426.667 512H362.667C315.539 512 277.334 473.795 277.334 426.667V362.667C277.333 315.538 315.538 277.333 362.667 277.333Z" fill="white" fill-opacity="0.5"/>
</svg>
