<svg width="42" height="32" viewBox="0 0 42 32" fill="none" xmlns="http://www.w3.org/2000/svg">
<path d="M39 0C37.346 0 36 1.346 36 3C36 3.888 36.396 4.679 37.011 5.229L28.211 19.26C27.8301 19.0892 27.4174 19.0007 27 19C26.132 19 25.356 19.376 24.807 19.967L15.734 14.222C15.902 13.848 16 13.436 16 13C16 11.346 14.654 10 13 10C11.346 10 10 11.346 10 13C10 13.904 10.41 14.706 11.044 15.256L4.149 26.231C3.78513 26.0785 3.39454 26 3 26C1.346 26 0 27.346 0 29C0 30.654 1.346 32 3 32C4.654 32 6 30.654 6 29C6 28.112 5.605 27.322 4.99 26.772L11.894 15.782C12.237 15.92 12.609 16 13 16C13.859 16 14.629 15.633 15.176 15.053L24.254 20.801C24.0872 21.1788 24.0007 21.5871 24 22C24 23.654 25.346 25 27 25C28.654 25 30 23.654 30 22C30 21.137 29.629 20.364 29.043 19.816L37.853 5.77C38.207 5.917 38.594 6 39 6C40.654 6 42 4.654 42 3C42 1.346 40.654 0 39 0ZM5 29C5 30.103 4.103 31 3 31C1.897 31 1 30.103 1 29C1 27.897 1.897 27 3 27C4.103 27 5 27.897 5 29ZM13 15C11.897 15 11 14.103 11 13C11 11.897 11.897 11 13 11C14.103 11 15 11.897 15 13C15 14.103 14.103 15 13 15ZM27 24C25.897 24 25 23.103 25 22C25 20.897 25.897 20 27 20C28.103 20 29 20.897 29 22C29 23.103 28.103 24 27 24ZM39 5C37.897 5 37 4.103 37 3C37 1.897 37.897 1 39 1C40.103 1 41 1.897 41 3C41 4.103 40.103 5 39 5Z" fill="white" fill-opacity="0.75"/>
</svg>
