<svg width="185" height="52" viewBox="0 0 185 52" fill="none" xmlns="http://www.w3.org/2000/svg">
<path fill-rule="evenodd" clip-rule="evenodd" d="M31.0218 7.39529C31.0218 4.89664 33.0474 2.87109 35.546 2.87109H38.7776C41.2762 2.87109 43.3018 4.89664 43.3018 7.39529V36.0877C43.3018 38.5863 41.2762 40.6119 38.7776 40.6119H31.0218V7.39529ZM15.5106 19.8473C15.5106 17.3487 17.5362 15.3231 20.0348 15.3231H23.2664C25.765 15.3231 27.7906 17.3487 27.7906 19.8473V36.0892C27.7906 38.5878 25.765 40.6134 23.2664 40.6134H15.5106V19.8473ZM4.84736 27.4438C2.17024 27.4438 0 29.6141 0 32.2912V40.6131H7.75577C10.2544 40.6131 12.28 38.5875 12.28 36.0889V31.968C12.28 29.4694 10.2544 27.4438 7.75577 27.4438H4.84736Z" fill="url(#paint0_linear_704_7)"/>
<path d="M58.8104 39.4478C57.2477 39.4478 56.0068 39.0342 55.0876 38.2069C54.1914 37.3796 53.7433 36.1617 53.7433 34.5531V24.6946H50.9512V21.6957H53.7433V16.8699H57.4661V21.6957H61.6714V24.6946H57.4661V33.8292C57.4661 34.6335 57.6039 35.2425 57.8797 35.6561C58.1784 36.0468 58.7185 36.2421 59.4998 36.2421C59.8905 36.2421 60.2811 36.1961 60.6718 36.1042C61.0624 35.9893 61.3956 35.8514 61.6714 35.6906V38.8963C61.2578 39.0801 60.7867 39.218 60.2581 39.3099C59.7526 39.4019 59.27 39.4478 58.8104 39.4478ZM65.5248 38.9997V23.2813C65.8235 23.0975 66.3751 22.8447 67.1794 22.523C67.9837 22.2013 68.9373 21.9255 70.0404 21.6957C71.1434 21.4429 72.2579 21.3165 73.384 21.3165C73.9585 21.3165 74.4296 21.3625 74.7972 21.4544C75.1649 21.5463 75.4752 21.6498 75.7279 21.7647V24.6601C75.1994 24.5912 74.6479 24.5452 74.0734 24.5223C73.4989 24.4763 72.9244 24.4763 72.3499 24.5223C71.7754 24.5452 71.2124 24.5912 70.6608 24.6601C70.1093 24.7291 69.6037 24.798 69.1441 24.867V38.9997H65.5248ZM85.2215 39.5168C84.3253 39.5168 83.4635 39.4248 82.6362 39.241C81.8089 39.0801 81.0506 38.7929 80.3612 38.3792C79.6948 37.9656 79.1547 37.4026 78.7411 36.6902C78.3504 35.9548 78.1551 35.0471 78.1551 33.9671C78.1551 32.6802 78.4079 31.6231 78.9135 30.7958C79.419 29.9685 80.1429 29.3481 81.0851 28.9344C82.0273 28.5208 83.1533 28.314 84.4631 28.314C85.3364 28.314 86.1177 28.3829 86.8071 28.5208C87.5195 28.6587 88.1514 28.854 88.703 29.1068C89.2775 29.3366 89.76 29.6009 90.1507 29.8996L90.5299 32.278C90.0243 31.9333 89.3464 31.6461 88.4961 31.4163C87.6459 31.1635 86.7267 31.0371 85.7385 31.0371C84.4287 31.0371 83.429 31.2669 82.7396 31.7265C82.0732 32.1861 81.74 32.8755 81.74 33.7947C81.74 34.4841 81.9353 35.0471 82.326 35.4837C82.7167 35.8974 83.1992 36.2076 83.7737 36.4144C84.3712 36.5983 84.9917 36.6902 85.6351 36.6902C86.991 36.6902 87.9906 36.5983 88.634 36.4144C89.2775 36.2306 89.5992 35.8055 89.5992 35.139V27.9003C89.5992 26.6824 89.2315 25.7977 88.4961 25.2461C87.7608 24.6716 86.7152 24.3844 85.3594 24.3844C84.3942 24.3844 83.3946 24.5452 82.3605 24.867C81.3264 25.1657 80.4761 25.5908 79.8097 26.1424V22.7643C80.4531 22.3277 81.3838 21.983 82.6018 21.7302C83.8427 21.4544 85.1181 21.3165 86.4279 21.3165C87.0714 21.3165 87.7148 21.3855 88.3583 21.5234C89.0247 21.6383 89.6451 21.8336 90.2197 22.1094C90.7942 22.3621 91.2997 22.7183 91.7363 23.1779C92.1959 23.6145 92.5521 24.1546 92.8049 24.798C93.0577 25.4415 93.1841 26.1998 93.1841 27.073V35.3459C93.1841 36.4719 92.8279 37.3451 92.1155 37.9656C91.4261 38.5631 90.4839 38.9652 89.289 39.1721C88.094 39.4019 86.7382 39.5168 85.2215 39.5168ZM105.578 39.5168C104.521 39.5168 103.486 39.3789 102.475 39.1031C101.464 38.8503 100.545 38.3907 99.7178 37.7243C98.8905 37.0349 98.2356 36.0812 97.753 34.8633C97.2704 33.6453 97.0291 32.0712 97.0291 30.1409C97.0291 27.4063 97.6955 25.2461 99.0284 23.6605C100.361 22.0749 102.383 21.2821 105.095 21.2821C105.532 21.2821 106.072 21.3395 106.715 21.4544C107.359 21.5693 108.013 21.7417 108.68 21.9715C109.346 22.1783 109.909 22.4541 110.369 22.7988L109.438 24.0052V14.457H113.023V35.3803C113.023 36.0927 112.793 36.7132 112.334 37.2417C111.897 37.7703 111.311 38.2069 110.576 38.5516C109.84 38.8733 109.036 39.1146 108.163 39.2755C107.29 39.4363 106.428 39.5168 105.578 39.5168ZM105.681 36.38C106.715 36.38 107.6 36.2536 108.335 36.0008C109.071 35.748 109.438 35.4148 109.438 35.0012V25.384C108.841 25.0393 108.209 24.7865 107.542 24.6257C106.876 24.4648 106.233 24.3844 105.612 24.3844C104.486 24.3844 103.555 24.6142 102.82 25.0738C102.108 25.5104 101.579 26.1653 101.234 27.0386C100.89 27.8888 100.717 28.9459 100.717 30.2098C100.717 31.3588 100.855 32.4044 101.131 33.3466C101.407 34.2658 101.901 35.0012 102.613 35.5527C103.349 36.1042 104.371 36.38 105.681 36.38ZM125.223 39.5168C123.523 39.5168 122.041 39.1721 120.777 38.4826C119.536 37.7932 118.571 36.7706 117.881 35.4148C117.215 34.059 116.882 32.4044 116.882 30.4511C116.882 27.4407 117.583 25.1657 118.984 23.626C120.409 22.0634 122.385 21.2821 124.913 21.2821C126.775 21.2821 128.28 21.6957 129.429 22.523C130.578 23.3503 131.405 24.5108 131.911 26.0045C132.439 27.4752 132.692 29.1987 132.669 31.175H119.053L118.95 28.4863H129.911L129.05 29.3481C128.981 27.5786 128.613 26.2917 127.947 25.4874C127.28 24.6601 126.235 24.2465 124.81 24.2465C123.891 24.2465 123.109 24.4418 122.466 24.8325C121.822 25.2002 121.328 25.8436 120.984 26.7628C120.662 27.659 120.501 28.9 120.501 30.4856C120.501 32.4159 120.949 33.8866 121.845 34.8978C122.742 35.8859 124.063 36.38 125.809 36.38C126.591 36.38 127.315 36.311 127.981 36.1732C128.67 36.0353 129.302 35.8629 129.877 35.6561C130.451 35.4263 130.945 35.208 131.359 35.0012V38.3448C130.555 38.6895 129.647 38.9652 128.636 39.1721C127.625 39.4019 126.487 39.5168 125.223 39.5168Z" fill="black"/>
<path d="M55.0874 38.2059L54.8682 38.4434L54.8712 38.4461L55.0874 38.2059ZM53.7431 24.6936H54.0662V24.3705H53.7431V24.6936ZM50.951 24.6936H50.6279V25.0168H50.951V24.6936ZM50.951 21.6947V21.3716H50.6279V21.6947H50.951ZM53.7431 21.6947V22.0179H54.0662V21.6947H53.7431ZM53.7431 16.8689V16.5457H53.4199V16.8689H53.7431ZM57.4659 16.8689H57.789V16.5457H57.4659V16.8689ZM57.4659 21.6947H57.1427V22.0179H57.4659V21.6947ZM61.6712 21.6947H61.9944V21.3716H61.6712V21.6947ZM61.6712 24.6936V25.0168H61.9944V24.6936H61.6712ZM57.4659 24.6936V24.3705H57.1427V24.6936H57.4659ZM57.8795 35.6551L57.6106 35.8344L57.6164 35.8431L57.6228 35.8514L57.8795 35.6551ZM60.6716 36.1032L60.7456 36.4178L60.7542 36.4157L60.7628 36.4132L60.6716 36.1032ZM61.6712 35.6896H61.9944V35.1269L61.5084 35.4104L61.6712 35.6896ZM61.6712 38.8953L61.8025 39.1906L61.9944 39.1053V38.8953H61.6712ZM60.2579 39.3089L60.2026 38.9905L60.2001 38.991L60.2579 39.3089ZM58.8102 39.1237C57.3056 39.1237 56.149 38.7266 55.3036 37.9657L54.8712 38.4461C55.8642 39.3398 57.1895 39.77 58.8102 39.77V39.1237ZM55.3066 37.9684C54.496 37.2202 54.0662 36.1007 54.0662 34.5521H53.4199C53.4199 36.2206 53.8864 37.537 54.8682 38.4433L55.3066 37.9684ZM54.0662 34.5521V24.6936H53.4199V34.5521H54.0662ZM53.7431 24.3705H50.951V25.0168H53.7431V24.3705ZM51.2742 24.6936V21.6947H50.6279V24.6936H51.2742ZM50.951 22.0179H53.7431V21.3716H50.951V22.0179ZM54.0662 21.6947V16.8689H53.4199V21.6947H54.0662ZM53.7431 17.1921H57.4659V16.5457H53.7431V17.1921ZM57.1427 16.8689V21.6947H57.789V16.8689H57.1427ZM57.4659 22.0179H61.6712V21.3716H57.4659V22.0179ZM61.3481 21.6947V24.6936H61.9944V21.6947H61.3481ZM61.6712 24.3705H57.4659V25.0168H61.6712V24.3705ZM57.1427 24.6936V33.8282H57.789V24.6936H57.1427ZM57.1427 33.8282C57.1427 34.6604 57.2838 35.3441 57.6106 35.8344L58.1484 35.4758C57.9237 35.1388 57.789 34.6046 57.789 33.8282H57.1427ZM57.6228 35.8514C58.0116 36.3598 58.6774 36.5642 59.4996 36.5642V35.9179C58.7592 35.9179 58.3449 35.7317 58.1362 35.4588L57.6228 35.8514ZM59.4996 36.5642C59.9158 36.5642 60.3313 36.5153 60.7456 36.4178L60.5976 35.7886C60.2305 35.875 59.8647 35.9179 59.4996 35.9179V36.5642ZM60.7628 36.4132C61.172 36.2929 61.5305 36.1457 61.834 35.9687L61.5084 35.4104C61.2604 35.5551 60.9525 35.6837 60.5804 35.7932L60.7628 36.4132ZM61.3481 35.6896V38.8953H61.9944V35.6896H61.3481ZM61.54 38.6C61.1546 38.7713 60.7096 38.9024 60.2026 38.9906L60.3133 39.6273C60.8633 39.5317 61.3606 39.387 61.8025 39.1906L61.54 38.6ZM60.2001 38.991C59.7114 39.0798 59.2483 39.1237 58.8102 39.1237V39.77C59.2913 39.77 59.7933 39.7219 60.3157 39.6269L60.2001 38.991ZM65.5246 38.9987H65.2014V39.3219H65.5246V38.9987ZM65.5246 23.2803L65.3552 23.0051L65.2014 23.0998V23.2803H65.5246ZM67.1792 22.522L67.2992 22.822L67.1792 22.522ZM70.0402 21.6947L70.1061 22.0111L70.1124 22.0097L70.0402 21.6947ZM75.7277 21.7637H76.0509V21.5556L75.8615 21.4695L75.7277 21.7637ZM75.7277 24.6591L75.6859 24.9796L76.0509 25.0272V24.6591H75.7277ZM74.0732 24.5213L74.0474 24.8436L74.0603 24.8442L74.0732 24.5213ZM72.3497 24.5213L72.3626 24.8444L72.3754 24.8434L72.3497 24.5213ZM70.6606 24.6591L70.7007 24.9798L70.6606 24.6591ZM69.1439 24.866L69.096 24.5464L68.8208 24.5877V24.866H69.1439ZM69.1439 38.9987V39.3219H69.4671V38.9987H69.1439ZM65.8477 38.9987V23.2803H65.2014V38.9987H65.8477ZM65.694 23.5556C65.9664 23.3879 66.4943 23.144 67.2992 22.822L67.0591 22.2219C66.2554 22.5435 65.6802 22.8051 65.3552 23.0051L65.694 23.5556ZM67.2992 22.822C68.0816 22.509 69.0163 22.2381 70.1061 22.0111L69.9743 21.3783C68.8579 21.6109 67.8853 21.8915 67.0591 22.2219L67.2992 22.822ZM70.1124 22.0097C71.1918 21.7623 72.2822 21.6387 73.3838 21.6387V20.9924C72.2333 20.9924 71.0946 21.1215 69.968 21.3797L70.1124 22.0097ZM73.3838 21.6387C73.9439 21.6387 74.3862 21.6838 74.7187 21.7669L74.8754 21.1399C74.4726 21.0392 73.9726 20.9924 73.3838 20.9924V21.6387ZM74.7187 21.7669C75.0737 21.8557 75.3642 21.9534 75.594 22.0578L75.8615 21.4695C75.5857 21.3441 75.2557 21.235 74.8754 21.1399L74.7187 21.7669ZM75.4046 21.7637V24.6591H76.0509V21.7637H75.4046ZM75.7695 24.3387C75.2307 24.2684 74.6695 24.2217 74.0861 24.1984L74.0603 24.8442C74.6258 24.8668 75.1677 24.912 75.6859 24.9796L75.7695 24.3387ZM74.0989 24.1991C73.5073 24.1518 72.9156 24.1518 72.3239 24.1991L72.3754 24.8434C72.9328 24.7988 73.4901 24.7988 74.0474 24.8434L74.0989 24.1991ZM72.3368 24.1984C71.7535 24.2217 71.1814 24.2684 70.6205 24.3385L70.7007 24.9798C71.2429 24.912 71.7969 24.8668 72.3626 24.8442L72.3368 24.1984ZM70.6205 24.3385C70.0669 24.4077 69.5587 24.477 69.096 24.5464L69.1919 25.1855C69.6484 25.1171 70.1513 25.0485 70.7007 24.9798L70.6205 24.3385ZM68.8208 24.866V38.9987H69.4671V24.866H68.8208ZM69.1439 38.6755H65.5246V39.3219H69.1439V38.6755ZM82.636 39.24L82.7062 38.9244L82.6977 38.9228L82.636 39.24ZM80.361 38.3782L80.1906 38.6528L80.1947 38.6553L80.361 38.3782ZM78.7409 36.6892L78.4553 36.8409L78.4614 36.8515L78.7409 36.6892ZM78.9133 30.7948L79.189 30.9633L78.9133 30.7948ZM81.0849 28.9334L80.955 28.6375L81.0849 28.9334ZM86.8069 28.5198L86.7435 28.8367L86.7455 28.8371L86.8069 28.5198ZM88.7028 29.1058L88.5681 29.3996L88.5754 29.4029L88.5827 29.4058L88.7028 29.1058ZM90.1505 29.8986L90.4696 29.8477L90.4493 29.7203L90.3468 29.6419L90.1505 29.8986ZM90.5297 32.277L90.3476 32.544L90.9668 32.9662L90.8488 32.2262L90.5297 32.277ZM88.4959 31.4153L88.4038 31.7251L88.4116 31.7272L88.4959 31.4153ZM82.7394 31.7255L82.5602 31.4566L82.556 31.4595L82.7394 31.7255ZM82.3258 35.4828L82.0849 35.6983L82.0909 35.7046L82.3258 35.4828ZM83.7735 36.4134L83.6641 36.7175L83.6712 36.7201L83.6785 36.7223L83.7735 36.4134ZM88.4959 25.2451L88.297 25.4998L88.3021 25.5037L88.4959 25.2451ZM82.3603 24.866L82.45 25.1765L82.4563 25.1745L82.3603 24.866ZM79.8095 26.1414H79.4863V26.8283L80.0155 26.3903L79.8095 26.1414ZM79.8095 22.7633L79.628 22.4959L79.4863 22.592V22.7633H79.8095ZM82.6016 21.7292L82.6672 22.0456L82.6717 22.0446L82.6016 21.7292ZM88.3581 21.5224L88.2903 21.8386L88.3032 21.8408L88.3581 21.5224ZM90.2195 22.1084L90.0795 22.3998L90.0893 22.4041L90.2195 22.1084ZM91.7361 23.1769L91.5018 23.3995L91.5076 23.4055L91.5136 23.4112L91.7361 23.1769ZM92.8047 24.797L92.5039 24.9152L92.8047 24.797ZM92.1153 37.9646L92.327 38.2088L92.3275 38.2083L92.1153 37.9646ZM89.2888 39.1711L89.2336 38.8526L89.2277 38.8537L89.2888 39.1711ZM85.2213 39.1926C84.3473 39.1926 83.5091 39.103 82.7061 38.9245L82.5659 39.5555C83.4175 39.7447 84.3028 39.8389 85.2213 39.8389V39.1926ZM82.6977 38.9228C81.9056 38.7687 81.1829 38.4945 80.5273 38.1011L80.1947 38.6553C80.9179 39.0893 81.7119 39.3895 82.5743 39.5572L82.6977 38.9228ZM80.5314 38.1037C79.9123 37.7194 79.4088 37.1959 79.0204 36.5269L78.4614 36.8515C78.9003 37.6073 79.4769 38.2098 80.1906 38.6528L80.5314 38.1037ZM79.0263 36.5376C78.6667 35.8607 78.4781 35.0085 78.4781 33.9661H77.8318C77.8318 35.0838 78.0338 36.047 78.4555 36.8408L79.0263 36.5376ZM78.4781 33.9661C78.4781 32.7197 78.723 31.7258 79.189 30.9633L78.6375 30.6263C78.0924 31.5184 77.8318 32.6387 77.8318 33.9661H78.4781ZM79.189 30.9633C79.6579 30.196 80.3292 29.6181 81.2148 29.2293L80.955 28.6375C79.9562 29.076 79.1797 29.7391 78.6375 30.6263L79.189 30.9633ZM81.2148 29.2293C82.1065 28.8379 83.186 28.6361 84.4629 28.6361V27.9898C83.1201 27.9898 81.9476 28.2017 80.955 28.6375L81.2148 29.2293ZM84.4629 28.6361C85.3198 28.6361 86.0793 28.7038 86.7435 28.8367L86.8703 28.2029C86.1557 28.06 85.3526 27.9898 84.4629 27.9898V28.6361ZM86.7455 28.8371C87.4374 28.971 88.044 29.1593 88.5681 29.3996L88.8374 28.812C88.2585 28.5467 87.6012 28.3444 86.8683 28.2025L86.7455 28.8371ZM88.5827 29.4058C89.1367 29.6274 89.592 29.8783 89.9542 30.1553L90.3468 29.6419C89.9277 29.3214 89.4179 29.0438 88.8228 28.8057L88.5827 29.4058ZM89.8314 29.9495L90.2106 32.3279L90.8488 32.2262L90.4696 29.8477L89.8314 29.9495ZM90.7117 32.01C90.1663 31.6382 89.4514 31.3388 88.5803 31.1033L88.4116 31.7272C89.241 31.9514 89.8819 32.2265 90.3476 32.544L90.7117 32.01ZM88.588 31.1055C87.7047 30.8429 86.7542 30.713 85.7383 30.713V31.3593C86.6988 31.3593 87.5867 31.4821 88.4039 31.725L88.588 31.1055ZM85.7383 30.713C84.3987 30.713 83.3253 30.9466 82.5602 31.4566L82.9187 31.9944C83.5324 31.5852 84.4582 31.3593 85.7383 31.3593V30.713ZM82.556 31.4595C81.7892 31.9883 81.4166 32.785 81.4166 33.7937H82.063C82.063 32.964 82.3569 32.3819 82.9229 31.9915L82.556 31.4595ZM81.4166 33.7937C81.4166 34.5477 81.6321 35.1921 82.085 35.6982L82.5666 35.2673C82.2381 34.9001 82.063 34.4185 82.063 33.7937H81.4166ZM82.0909 35.7046C82.5188 36.1578 83.0455 36.4948 83.6641 36.7175L83.883 36.1094C83.3526 35.9185 82.9141 35.635 82.5607 35.2609L82.0909 35.7046ZM83.6785 36.7223C84.3077 36.9159 84.9602 37.0124 85.6349 37.0124V36.366C85.0227 36.366 84.4344 36.2787 83.8686 36.1046L83.6785 36.7223ZM85.6349 37.0124C86.9966 37.0124 88.0338 36.921 88.7226 36.7242L88.545 36.1027C87.947 36.2736 86.9849 36.366 85.6349 36.366V37.0124ZM88.7226 36.7242C89.0943 36.618 89.4025 36.4331 89.6154 36.1517C89.8284 35.8703 89.9221 35.5238 89.9221 35.1381H89.2758C89.2758 35.4187 89.2087 35.618 89.1 35.7617C88.9912 35.9055 88.8168 36.0251 88.545 36.1027L88.7226 36.7242ZM89.9221 35.1381V27.8993H89.2758V35.1381H89.9221ZM89.9221 27.8993C89.9221 26.6156 89.5316 25.6179 88.6898 24.9866L88.3021 25.5037C88.931 25.9754 89.2758 26.7472 89.2758 27.8993H89.9221ZM88.6949 24.9905C87.882 24.3554 86.7555 24.0602 85.3592 24.0602V24.7065C86.6745 24.7065 87.6391 24.9858 88.297 25.4998L88.6949 24.9905ZM85.3592 24.0602C84.3578 24.0602 83.3257 24.2272 82.2643 24.5574L82.4563 25.1745C83.463 24.8613 84.4303 24.7065 85.3592 24.7065V24.0602ZM82.2706 24.5555C81.204 24.8636 80.3113 25.3066 79.6034 25.8924L80.0155 26.3903C80.6405 25.8731 81.4484 25.4658 82.45 25.1764L82.2706 24.5555ZM80.1326 26.1414V22.7633H79.4863V26.1414H80.1326ZM79.9909 23.0307C80.5847 22.6278 81.4688 22.2943 82.6672 22.0456L82.5359 21.4128C81.2984 21.6696 80.3212 22.0255 79.628 22.4959L79.9909 23.0307ZM82.6717 22.0446C83.8889 21.7741 85.1407 21.6387 86.4277 21.6387V20.9924C85.095 20.9924 83.7961 21.1327 82.5315 21.4137L82.6717 22.0446ZM86.4277 21.6387C87.0479 21.6387 87.6687 21.7051 88.2904 21.8383L88.4258 21.2064C87.7606 21.0638 87.0945 20.9924 86.4277 20.9924V21.6387ZM88.3032 21.8408C88.942 21.951 89.5336 22.1376 90.0796 22.3997L90.3593 21.817C89.7563 21.5276 89.107 21.3236 88.413 21.2039L88.3032 21.8408ZM90.0893 22.4041C90.6242 22.6395 91.0944 22.9706 91.5018 23.3995L91.9704 22.9544C91.5046 22.464 90.9637 22.0828 90.3496 21.8126L90.0893 22.4041ZM91.5136 23.4112C91.9359 23.8124 92.2668 24.3117 92.5039 24.9152L93.1055 24.6789C92.837 23.9955 92.4556 23.4146 91.9587 22.9426L91.5136 23.4112ZM92.5039 24.9152C92.7386 25.5125 92.8607 26.229 92.8607 27.072H93.507C93.507 26.1686 93.3764 25.3684 93.1055 24.6789L92.5039 24.9152ZM92.8607 27.072V35.3449H93.507V27.072H92.8607ZM92.8607 35.3449C92.8607 36.3971 92.5314 37.1737 91.9031 37.7209L92.3275 38.2083C93.124 37.5146 93.507 36.5447 93.507 35.3449H92.8607ZM91.9037 37.7204C91.2711 38.2686 90.3892 38.6526 89.2336 38.8526L89.3439 39.4895C90.5782 39.2758 91.5808 38.8555 92.327 38.2088L91.9037 37.7204ZM89.2277 38.8537C88.0571 39.0788 86.7223 39.1926 85.2213 39.1926V39.8389C86.7537 39.8389 88.1305 39.7229 89.3498 39.4884L89.2277 38.8537ZM102.475 39.1021L102.56 38.7903L102.554 38.7886L102.475 39.1021ZM99.7176 37.7233L99.5107 37.9716L99.5149 37.975L99.7176 37.7233ZM97.7528 34.8623L98.0532 34.7432L97.7528 34.8623ZM99.0282 23.6595L98.7808 23.4516L99.0282 23.6595ZM108.68 21.9705L108.575 22.2761L108.584 22.2791L108.68 21.9705ZM110.369 22.7978L110.625 22.9951L110.825 22.7358L110.563 22.5392L110.369 22.7978ZM109.438 24.0042H109.115V24.9522L109.694 24.2016L109.438 24.0042ZM109.438 14.456V14.1328H109.115V14.456H109.438ZM113.023 14.456H113.346V14.1328H113.023V14.456ZM112.334 37.2407L112.09 37.0286L112.085 37.0349L112.334 37.2407ZM110.576 38.5506L110.705 38.8468L110.713 38.8432L110.576 38.5506ZM108.163 39.2745L108.221 39.5923L108.163 39.2745ZM109.438 25.383H109.761V25.1964L109.6 25.1031L109.438 25.383ZM102.82 25.0728L102.989 25.3483L102.991 25.3468L102.82 25.0728ZM101.234 27.0376L101.534 27.159L101.535 27.1562L101.234 27.0376ZM101.131 33.3456L100.821 33.4364V33.4385L101.131 33.3456ZM102.613 35.5517L102.415 35.8072L102.419 35.8102L102.613 35.5517ZM105.578 39.1926C104.549 39.1926 103.543 39.0585 102.56 38.7903L102.39 39.4139C103.429 39.6973 104.492 39.8389 105.578 39.8389V39.1926ZM102.554 38.7886C101.589 38.5474 100.712 38.1093 99.9203 37.4716L99.5149 37.975C100.378 38.6702 101.339 39.1513 102.397 39.4156L102.554 38.7886ZM99.9245 37.475C99.1468 36.827 98.5202 35.9218 98.0532 34.7432L97.4523 34.9813C97.9506 36.2387 98.6338 37.2408 99.5107 37.9716L99.9245 37.475ZM98.0532 34.7432C97.591 33.5767 97.3521 32.047 97.3521 30.1399H96.7058C96.7058 32.0934 96.9494 33.712 97.4523 34.9813L98.0532 34.7432ZM97.3521 30.1399C97.3521 27.4567 98.0055 25.3784 99.2756 23.8674L98.7808 23.4516C97.3852 25.1118 96.7058 27.3538 96.7058 30.1399H97.3521ZM99.2756 23.8674C100.529 22.376 102.447 21.6042 105.095 21.6042V20.9579C102.319 20.9579 100.193 21.7718 98.7808 23.4516L99.2756 23.8674ZM105.095 21.6042C105.506 21.6042 106.025 21.6585 106.658 21.7715L106.772 21.1353C106.118 21.0185 105.558 20.9579 105.095 20.9579V21.6042ZM106.658 21.7715C107.284 21.8833 107.923 22.0512 108.575 22.276L108.785 21.665C108.104 21.4301 107.433 21.2534 106.772 21.1353L106.658 21.7715ZM108.584 22.2791C109.223 22.4772 109.751 22.738 110.175 23.0563L110.563 22.5392C110.068 22.1681 109.47 21.8773 108.776 21.6618L108.584 22.2791ZM110.113 22.6004L109.182 23.8068L109.694 24.2016L110.625 22.9951L110.113 22.6004ZM109.761 24.0042V14.456H109.115V24.0042H109.761ZM109.438 14.7791H113.023V14.1328H109.438V14.7791ZM112.7 14.456V35.3793H113.346V14.456H112.7ZM112.7 35.3793C112.7 36.0153 112.497 36.56 112.09 37.0287L112.578 37.4528C113.089 36.8643 113.346 36.1682 113.346 35.3793H112.7ZM112.085 37.0349C111.684 37.5204 111.139 37.9299 110.439 38.258L110.713 38.8432C111.484 38.4819 112.111 38.0181 112.583 37.4465L112.085 37.0349ZM110.446 38.2545C109.736 38.5653 108.956 38.7998 108.104 38.9567L108.221 39.5923C109.117 39.4274 109.945 39.1793 110.705 38.8466L110.446 38.2545ZM108.104 38.9567C107.25 39.1141 106.407 39.1926 105.578 39.1926V39.8389C106.448 39.8389 107.33 39.7565 108.221 39.5923L108.104 38.9567ZM105.681 36.7021C106.74 36.7021 107.662 36.5729 108.44 36.3054L108.23 35.6942C107.538 35.9322 106.69 36.0558 105.681 36.0558V36.7021ZM108.44 36.3054C108.828 36.172 109.15 36.0077 109.379 35.7998C109.616 35.5852 109.761 35.3163 109.761 35.0002H109.115C109.115 35.0977 109.076 35.2022 108.945 35.3209C108.807 35.4461 108.577 35.5748 108.23 35.6942L108.44 36.3054ZM109.761 35.0002V25.383H109.115V35.0002H109.761ZM109.6 25.1031C108.976 24.743 108.315 24.4787 107.618 24.3105L107.467 24.9388C108.103 25.0924 108.706 25.3336 109.277 25.6629L109.6 25.1031ZM107.618 24.3105C106.93 24.1443 106.261 24.0602 105.612 24.0602V24.7065C106.204 24.7065 106.822 24.7833 107.467 24.9388L107.618 24.3105ZM105.612 24.0602C104.443 24.0602 103.449 24.2988 102.649 24.7987L102.991 25.3468C103.662 24.9276 104.529 24.7065 105.612 24.7065V24.0602ZM102.651 24.7973C101.872 25.275 101.301 25.9889 100.934 26.9189L101.535 27.1562C101.857 26.3397 102.344 25.7438 102.989 25.3483L102.651 24.7973ZM100.935 26.9162C100.57 27.8166 100.394 28.918 100.394 30.2088H101.04C101.04 28.9719 101.209 27.9591 101.534 27.159L100.935 26.9162ZM100.394 30.2088C100.394 31.3835 100.535 32.4602 100.821 33.4364L101.441 33.2548C101.175 32.3466 101.04 31.3322 101.04 30.2088H100.394ZM100.821 33.4385C101.115 34.4178 101.646 35.2117 102.415 35.8072L102.811 35.2962C102.155 34.7887 101.698 34.1119 101.44 33.2527L100.821 33.4385ZM102.419 35.8102C103.23 36.4182 104.33 36.7021 105.681 36.7021V36.0558C104.412 36.0558 103.467 35.7882 102.807 35.2932L102.419 35.8102ZM120.777 38.4816L120.62 38.7641L120.622 38.7653L120.777 38.4816ZM117.881 35.4138L117.591 35.5564L117.593 35.5603L117.881 35.4138ZM118.984 23.625L118.746 23.4073L118.745 23.4075L118.984 23.625ZM129.429 22.522L129.618 22.2597L129.429 22.522ZM131.911 26.0035L131.604 26.1071L131.606 26.1128L131.911 26.0035ZM132.669 31.174V31.4971H132.988L132.992 31.1777L132.669 31.174ZM119.053 31.174L118.73 31.1864L118.742 31.4971H119.053V31.174ZM118.95 28.4853V28.1622H118.614L118.627 28.4977L118.95 28.4853ZM129.911 28.4853L130.14 28.7138L130.691 28.1622H129.911V28.4853ZM129.05 29.3471L128.727 29.3597L128.755 30.0982L129.278 29.5756L129.05 29.3471ZM127.947 25.4864L127.695 25.6892L127.698 25.6926L127.947 25.4864ZM122.466 24.8315L122.626 25.1122L122.633 25.1077L122.466 24.8315ZM120.984 26.7618L120.681 26.6483L120.679 26.6526L120.984 26.7618ZM121.845 34.8968L121.603 35.1111L121.606 35.1139L121.845 34.8968ZM127.981 36.1722L127.918 35.8553L127.916 35.8557L127.981 36.1722ZM129.877 35.6551L129.986 35.9593L129.997 35.9551L129.877 35.6551ZM131.359 35.0002H131.682V34.4773L131.215 34.7111L131.359 35.0002ZM131.359 38.3438L131.486 38.6408L131.682 38.5569V38.3438H131.359ZM128.636 39.1711L128.571 38.8544L128.564 38.8559L128.636 39.1711ZM125.223 39.1926C123.567 39.1926 122.14 38.8571 120.931 38.1979L120.622 38.7653C121.941 39.485 123.479 39.8389 125.223 39.8389V39.1926ZM120.934 38.1992C119.753 37.5433 118.832 36.5701 118.169 35.2673L117.593 35.5603C118.31 36.9692 119.319 38.0412 120.62 38.7641L120.934 38.1992ZM118.171 35.2713C117.532 33.9708 117.205 32.368 117.205 30.4501H116.558C116.558 32.4389 116.898 34.1451 117.591 35.5564L118.171 35.2713ZM117.205 30.4501C117.205 27.4847 117.896 25.3009 119.223 23.8426L118.745 23.4075C117.269 25.0285 116.558 27.3947 116.558 30.4501H117.205ZM119.223 23.8428C120.575 22.3603 122.457 21.6042 124.913 21.6042V20.9579C122.314 20.9579 120.243 21.7644 118.746 23.4073L119.223 23.8428ZM124.913 21.6042C126.728 21.6042 128.161 22.0074 129.24 22.7842L129.618 22.2597C128.399 21.3821 126.821 20.9579 124.913 20.9579V21.6042ZM129.24 22.7842C130.328 23.5677 131.118 24.6696 131.604 26.1071L132.217 25.8999C131.692 24.3499 130.827 23.1308 129.618 22.2597L129.24 22.7842ZM131.606 26.1128C132.119 27.5391 132.368 29.2227 132.346 31.1702L132.992 31.1777C133.015 29.1727 132.759 27.4093 132.215 25.8942L131.606 26.1128ZM132.669 30.8508H119.053V31.4971H132.669V30.8508ZM119.376 31.1616L119.273 28.4729L118.627 28.4977L118.73 31.1864L119.376 31.1616ZM118.95 28.8085H129.911V28.1622H118.95V28.8085ZM129.683 28.2568L128.821 29.1186L129.278 29.5756L130.14 28.7138L129.683 28.2568ZM129.372 29.3345C129.303 27.5388 128.929 26.1657 128.195 25.2802L127.698 25.6926C128.297 26.4157 128.659 27.6165 128.727 29.3597L129.372 29.3345ZM128.198 25.2837C127.451 24.3563 126.297 23.9223 124.81 23.9223V24.5687C126.172 24.5687 127.109 24.962 127.695 25.6891L128.198 25.2837ZM124.81 23.9223C123.844 23.9223 123.002 24.1278 122.298 24.5553L122.633 25.1077C123.216 24.7539 123.937 24.5687 124.81 24.5687V23.9223ZM122.305 24.5509C121.578 24.9666 121.043 25.6817 120.681 26.6483L121.286 26.8753C121.613 26.0036 122.067 25.4317 122.626 25.1121L122.305 24.5509ZM120.679 26.6526C120.34 27.5995 120.178 28.8831 120.178 30.4846H120.824C120.824 28.9148 120.984 27.7166 121.288 26.871L120.679 26.6526ZM120.178 30.4846C120.178 32.4604 120.636 34.0199 121.603 35.1111L122.087 34.6824C121.262 33.7514 120.824 32.3694 120.824 30.4846H120.178ZM121.606 35.1139C122.581 36.1888 124.001 36.7021 125.809 36.7021V36.0558C124.124 36.0558 122.902 35.581 122.085 34.6797L121.606 35.1139ZM125.809 36.7021C126.61 36.7021 127.356 36.6315 128.046 36.4886L127.916 35.8557C127.274 35.9885 126.572 36.0558 125.809 36.0558V36.7021ZM128.044 36.489C128.747 36.3485 129.395 36.1721 129.986 35.9592L129.767 35.351C129.21 35.5517 128.594 35.7201 127.918 35.8553L128.044 36.489ZM129.997 35.9551C130.577 35.723 131.08 35.5011 131.504 35.2892L131.215 34.7111C130.811 34.9129 130.326 35.1275 129.757 35.3551L129.997 35.9551ZM131.036 35.0002V38.3438H131.682V35.0002H131.036ZM131.232 38.0467C130.451 38.3814 129.565 38.6513 128.571 38.8544L128.701 39.4877C129.73 39.2772 130.659 38.9955 131.486 38.6408L131.232 38.0467ZM128.564 38.8559C127.581 39.0794 126.468 39.1926 125.223 39.1926V39.8389C126.506 39.8389 127.668 39.7223 128.708 39.4862L128.564 38.8559Z" fill="black"/>
<path d="M151.326 27.7963V38.9991H148.844V27.7963C148.844 27.3827 148.787 26.9461 148.672 26.4865C148.58 26.0269 148.385 25.5902 148.086 25.1766C147.787 24.74 147.328 24.3953 146.707 24.1425C146.087 23.8667 145.259 23.7288 144.225 23.7288C143.513 23.7288 142.778 23.7863 142.019 23.9012C141.261 24.0161 140.491 24.1884 139.71 24.4182V38.9991H137.228V23.1773C137.779 22.9016 138.342 22.6603 138.917 22.4535C139.514 22.2237 140.112 22.0398 140.709 21.9019C141.33 21.7641 141.95 21.6606 142.571 21.5917C143.214 21.5228 143.858 21.4883 144.501 21.4883C146.179 21.4883 147.511 21.7411 148.5 22.2466C149.488 22.7292 150.2 23.4416 150.637 24.3838C151.096 25.326 151.326 26.4635 151.326 27.7963ZM148.051 23.8667C148.81 23.2922 149.58 22.8326 150.361 22.4879C151.142 22.1432 151.947 21.8904 152.774 21.7296C153.624 21.5687 154.474 21.4883 155.325 21.4883C157.002 21.4883 158.335 21.7411 159.323 22.2466C160.311 22.7292 161.024 23.4416 161.46 24.3838C161.92 25.326 162.15 26.4635 162.15 27.7963V38.9991H159.668V27.7963C159.668 27.3827 159.61 26.9461 159.496 26.4865C159.404 26.0269 159.208 25.5902 158.91 25.1766C158.611 24.74 158.151 24.3953 157.531 24.1425C156.91 23.8667 156.083 23.7288 155.049 23.7288C154.336 23.7288 153.601 23.8323 152.843 24.0391C152.084 24.2459 151.315 24.6021 150.533 25.1077L148.051 23.8667ZM174.38 39.5162C171.691 39.5162 169.692 38.7233 168.382 37.1377C167.095 35.5291 166.452 33.3 166.452 30.4505C166.452 27.4631 167.13 25.2226 168.486 23.7288C169.865 22.2351 171.806 21.4883 174.311 21.4883C176.173 21.4883 177.689 21.8675 178.861 22.6258C180.033 23.3612 180.895 24.4068 181.446 25.7626C181.998 27.0954 182.274 28.6581 182.274 30.4505C182.274 33.2771 181.584 35.4946 180.206 37.1032C178.85 38.7118 176.908 39.5162 174.38 39.5162ZM174.346 37.2411C175.747 37.2411 176.839 36.9424 177.62 36.3449C178.402 35.7244 178.953 34.9086 179.275 33.8975C179.62 32.8634 179.792 31.7144 179.792 30.4505C179.792 29.0947 179.62 27.9227 179.275 26.9346C178.93 25.9234 178.356 25.1421 177.551 24.5906C176.77 24.0391 175.701 23.7633 174.346 23.7633C172.967 23.7633 171.887 24.0621 171.105 24.6595C170.324 25.257 169.761 26.0613 169.416 27.0724C169.095 28.0606 168.934 29.1866 168.934 30.4505C168.934 32.4728 169.336 34.1158 170.14 35.3797C170.945 36.6207 172.346 37.2411 174.346 37.2411Z" fill="black"/>
<defs>
<linearGradient id="paint0_linear_704_7" x1="2.31845e-07" y1="20.1114" x2="44.2214" y2="19.9636" gradientUnits="userSpaceOnUse">
<stop stop-color="#0874FC"/>
<stop offset="0.519325" stop-color="#519EFF"/>
<stop offset="1" stop-color="#0874FC"/>
</linearGradient>
</defs>
</svg>
