<svg width="200" height="200" viewBox="0 0 200 200" fill="none" xmlns="http://www.w3.org/2000/svg">
<path d="M168.75 101.172H98.8283V31.2501C98.8283 30.3907 98.1251 29.6876 97.2658 29.6876H92.1876C81.9279 29.6708 71.766 31.6828 62.2867 35.6079C52.8075 39.533 44.1979 45.2938 36.9532 52.5587C29.8187 59.6712 24.1339 68.1021 20.215 77.3829C16.1369 87.0086 14.0444 97.3586 14.0626 107.813C14.0458 118.072 16.0579 128.234 19.983 137.713C23.9081 147.193 29.6688 155.802 36.9337 163.047C44.1017 170.215 52.4611 175.859 61.7579 179.785C71.3837 183.863 81.7337 185.956 92.1876 185.938C102.447 185.954 112.609 183.942 122.089 180.017C131.568 176.092 140.177 170.331 147.422 163.066C154.59 155.899 160.235 147.539 164.16 138.242C168.238 128.617 170.331 118.267 170.313 107.813V102.734C170.313 101.875 169.61 101.172 168.75 101.172ZM137.832 153.867C131.784 159.868 124.612 164.616 116.726 167.841C108.84 171.065 100.395 172.701 91.8751 172.656C74.6681 172.578 58.4962 165.84 46.3282 153.672C34.0822 141.426 27.3439 125.137 27.3439 107.813C27.3439 90.4884 34.0822 74.1993 46.3282 61.9532C56.9923 51.2891 70.7228 44.7852 85.547 43.3009V114.453H156.699C155.195 129.356 148.633 143.164 137.832 153.867V153.867ZM185.938 90.3126L185.43 84.8048C183.77 66.8165 175.781 49.8438 162.93 37.0313C150.069 24.1953 133.131 16.2514 115.039 14.5704L109.512 14.0626C108.594 13.9844 107.813 14.6876 107.813 15.6055V90.6251C107.813 91.4844 108.516 92.1876 109.375 92.1876L184.375 91.9923C185.293 91.9923 186.016 91.211 185.938 90.3126ZM121.055 78.9454V28.8282C133.358 31.4033 144.649 37.4965 153.555 46.3673C162.481 55.2735 168.594 66.6016 171.133 78.8087L121.055 78.9454Z" fill="white" fill-opacity="0.5"/>
</svg>
