<svg width="50" height="50" viewBox="0 0 50 50" fill="none" xmlns="http://www.w3.org/2000/svg">
<path d="M42.1875 25.2925H24.7071V7.81203C24.7071 7.59719 24.5313 7.4214 24.3164 7.4214H23.0469C20.482 7.4172 17.9415 7.92021 15.5717 8.90149C13.2019 9.88277 11.0495 11.323 9.23831 13.1392C7.45466 14.9173 6.03348 17.025 5.05374 19.3452C4.03424 21.7517 3.51109 24.3392 3.51565 26.9527C3.51145 29.5176 4.01446 32.0581 4.99574 34.4279C5.97702 36.7977 7.4172 38.9501 9.23343 40.7612C11.0254 42.5532 13.1153 43.9644 15.4395 44.9458C17.8459 45.9653 20.4334 46.4885 23.0469 46.4839C25.6118 46.4881 28.1523 45.9851 30.5221 45.0038C32.8919 44.0225 35.0443 42.5824 36.8555 40.7661C38.6475 38.9741 40.0586 36.8843 41.0401 34.5601C42.0596 32.1536 42.5827 29.5661 42.5782 26.9527V25.6831C42.5782 25.4683 42.4024 25.2925 42.1875 25.2925ZM34.458 38.4663C32.9461 39.9665 31.1529 41.1536 29.1814 41.9597C27.2099 42.7657 25.0987 43.1748 22.9688 43.1636C18.667 43.1441 14.6241 41.4595 11.5821 38.4175C8.52054 35.356 6.83597 31.2837 6.83597 26.9527C6.83597 22.6216 8.52054 18.5493 11.5821 15.4878C14.2481 12.8218 17.6807 11.1958 21.3867 10.8247V28.6128H39.1748C38.7989 32.3384 37.1582 35.7905 34.458 38.4663V38.4663ZM46.4844 22.5777L46.3575 21.2007C45.9424 16.7036 43.9453 12.4605 40.7325 9.25734C37.5173 6.04834 33.2829 4.06235 28.7598 3.64211L27.378 3.51515C27.1485 3.49562 26.9532 3.6714 26.9532 3.9009V22.6558C26.9532 22.8706 27.1289 23.0464 27.3438 23.0464L46.0938 22.9976C46.3233 22.9976 46.5039 22.8023 46.4844 22.5777ZM30.2637 19.7359V7.20656C33.3396 7.85035 36.1622 9.37364 38.3887 11.5913C40.6202 13.8179 42.1485 16.6499 42.7832 19.7017L30.2637 19.7359Z" fill="#0874FC"/>
</svg>
