<svg width="50" height="50" viewBox="0 0 50 50" fill="none" xmlns="http://www.w3.org/2000/svg">
<path d="M45.4784 24.3607L4.63366 3.88219C4.46764 3.79918 4.27721 3.77965 4.09655 3.8236C3.68151 3.92614 3.42272 4.34606 3.52526 4.76598L7.73424 21.9632C7.79772 22.222 7.98815 22.432 8.24206 22.515L15.454 24.9906L8.24694 27.4662C7.99303 27.5541 7.8026 27.7591 7.74401 28.0179L3.52526 45.2396C3.48131 45.4203 3.50085 45.6107 3.58385 45.7718C3.77428 46.1576 4.24303 46.3138 4.63366 46.1234L45.4784 25.7621C45.6298 25.6888 45.7518 25.5619 45.8299 25.4154C46.0204 25.0248 45.8641 24.556 45.4784 24.3607ZM8.33971 40.347L10.7958 30.308L25.2098 25.3617C25.3221 25.3226 25.4149 25.2347 25.454 25.1175C25.5223 24.9125 25.4149 24.6927 25.2098 24.6195L10.7958 19.6781L8.34948 9.67809L39.0135 25.0541L8.33971 40.347V40.347Z" fill="white"/>
</svg>
